<?xml version="1.0" encoding="iso-8859-1"?>
<!-- Generator: Adobe Illustrator 18.1.1, SVG Export Plug-In . SVG Version: 6.00 Build 0)  -->
<svg version="1.1" id="Capa_1" xmlns="http://www.w3.org/2000/svg" xmlns:xlink="http://www.w3.org/1999/xlink" x="0px" y="0px"
	 viewBox="0 0 285.002 285.002" style="enable-background:new 0 0 285.002 285.002;" xml:space="preserve">
<g>
	<path d="M279.806,235.505c-0.136-1.772-0.928-3.476-2.227-4.747L165.336,118.515c4.416-10.403,6.747-21.669,6.747-33.312
		c0-22.754-8.875-44.163-24.938-60.266C131.059,8.866,109.665,0,86.898,0C64.12,0,42.763,8.869,26.651,24.95
		c-33.243,33.225-33.25,87.266-0.005,120.488c16.111,16.115,37.475,24.99,60.241,24.99c11.646,0,22.884-2.35,33.312-6.772
		l36.874,36.902c1.534,1.515,3.557,2.319,5.74,2.248l20.095-0.705l-0.656,20.145c-0.062,2.125,0.705,4.193,2.245,5.706
		c1.484,1.512,3.569,2.334,5.685,2.248l20.169-0.689l-0.724,20.123c-0.063,2.127,0.754,4.199,2.238,5.712
		c1.534,1.512,3.321,2.325,5.74,2.251l20.119-0.684l-0.674,20.126c-0.118,2.232,0.822,4.379,2.418,5.903
		c1.472,1.339,3.309,2.06,5.245,2.06c0.278,0,0.563-0.012,0.847-0.037l30.851-3.426c4.169-0.455,7.205-4.175,6.847-8.353
		L279.806,235.505z M76.607,74.915c-9.476,9.466-24.796,9.466-34.252,0c-9.47-9.469-9.47-24.786,0-34.246
		c9.456-9.46,24.771-9.469,34.252-0.003C86.064,50.125,86.058,65.452,76.607,74.915z M253.471,238.075
		c-1.126,1.126-2.635,1.688-4.101,1.688s-2.976-0.563-4.101-1.688l-95.501-95.529c2.659-2.867,5.077-5.885,7.273-9.058l96.429,96.41
		C255.722,232.15,255.722,235.824,253.471,238.075z"/>
</g>
<g>
</g>
<g>
</g>
<g>
</g>
<g>
</g>
<g>
</g>
<g>
</g>
<g>
</g>
<g>
</g>
<g>
</g>
<g>
</g>
<g>
</g>
<g>
</g>
<g>
</g>
<g>
</g>
<g>
</g>
</svg>
